<svg width="924" height="1048" viewBox="0 0 924 1048" fill="none" xmlns="http://www.w3.org/2000/svg">
<path d="M0 89.6C0 58.2371 0 42.5556 6.10364 30.5765C11.4725 20.0395 20.0395 11.4725 30.5765 6.10364C42.5556 0 58.2371 0 89.6 0H645.4C676.763 0 692.444 0 704.423 6.10364C714.961 11.4725 723.527 20.0395 728.896 30.5765C735 42.5556 735 58.2371 735 89.6V958.4C735 989.763 735 1005.44 728.896 1017.42C723.527 1027.96 714.961 1036.53 704.423 1041.9C692.444 1048 676.763 1048 645.4 1048H89.6C58.2371 1048 42.5556 1048 30.5765 1041.9C20.0395 1036.53 11.4725 1027.96 6.10364 1017.42C0 1005.44 0 989.763 0 958.4V89.6Z" fill="#E5F6FF"/>
<path fill-rule="evenodd" clip-rule="evenodd" d="M689.656 0H867.197C902.229 0 928.661 31.8029 922.252 66.244L748.092 1002.24C743.157 1028.77 720.014 1048 693.037 1048H583L689.656 0Z" fill="#E5F6FF"/>
</svg>
