<svg width="22" height="22" viewBox="0 0 22 22" fill="none" xmlns="http://www.w3.org/2000/svg">
<path d="M20.2929 21.7071C20.6834 22.0976 21.3166 22.0976 21.7071 21.7071C22.0976 21.3166 22.0976 20.6834 21.7071 20.2929L20.2929 21.7071ZM17.7071 16.2929C17.3166 15.9024 16.6834 15.9024 16.2929 16.2929C15.9024 16.6834 15.9024 17.3166 16.2929 17.7071L17.7071 16.2929ZM21.7071 20.2929L17.7071 16.2929L16.2929 17.7071L20.2929 21.7071L21.7071 20.2929ZM9 18C13.9706 18 18 13.9706 18 9H16C16 12.866 12.866 16 9 16V18ZM18 9C18 4.02944 13.9706 0 9 0V2C12.866 2 16 5.13401 16 9H18ZM9 0C4.02944 0 0 4.02944 0 9H2C2 5.13401 5.13401 2 9 2V0ZM0 9C0 13.9706 4.02944 18 9 18V16C5.13401 16 2 12.866 2 9H0Z" fill="#464185"/>
</svg>
